<svg width="19" height="19" viewBox="0 0 19 19" fill="none" xmlns="http://www.w3.org/2000/svg">
<path d="M15.6304 9.97641L10.5679 15.0389C10.4623 15.1445 10.3192 15.2038 10.1699 15.2038C10.0207 15.2038 9.8775 15.1445 9.77195 15.0389C9.66641 14.9334 9.60711 14.7902 9.60711 14.6409C9.60711 14.4917 9.66641 14.3485 9.77195 14.243L13.8747 10.1409H2.85742C2.70824 10.1409 2.56516 10.0817 2.45967 9.97619C2.35419 9.8707 2.29492 9.72762 2.29492 9.57844C2.29492 9.42925 2.35419 9.28618 2.45967 9.18069C2.56516 9.0752 2.70824 9.01594 2.85742 9.01594H13.8747L9.77195 4.91391C9.66641 4.80836 9.60711 4.66521 9.60711 4.51594C9.60711 4.36667 9.66641 4.22352 9.77195 4.11797C9.8775 4.01242 10.0207 3.95313 10.1699 3.95312C10.3192 3.95312 10.4623 4.01242 10.5679 4.11797L15.6304 9.18047C15.6827 9.23271 15.7242 9.29475 15.7525 9.36303C15.7808 9.43132 15.7954 9.50452 15.7954 9.57844C15.7954 9.65236 15.7808 9.72556 15.7525 9.79384C15.7242 9.86213 15.6827 9.92417 15.6304 9.97641Z" fill="#475569"/>
</svg>
