<svg width="32" height="32" viewBox="0 0 32 32" fill="none" xmlns="http://www.w3.org/2000/svg">
<path d="M27.9961 6H3.99609C3.73088 6 3.47652 6.10536 3.28899 6.29289C3.10145 6.48043 2.99609 6.73478 2.99609 7V24C2.99609 24.5304 3.20681 25.0391 3.58188 25.4142C3.95695 25.7893 4.46566 26 4.99609 26H26.9961C27.5265 26 28.0352 25.7893 28.4103 25.4142C28.7854 25.0391 28.9961 24.5304 28.9961 24V7C28.9961 6.73478 28.8907 6.48043 28.7032 6.29289C28.5157 6.10536 28.2613 6 27.9961 6ZM15.9961 16.6437L6.56734 8H25.4248L15.9961 16.6437ZM12.3348 16L4.99609 22.7262V9.27375L12.3348 16ZM13.8148 17.3563L15.3148 18.7375C15.4993 18.9069 15.7407 19.0008 15.9911 19.0008C16.2415 19.0008 16.4829 18.9069 16.6673 18.7375L18.1673 17.3563L25.4173 24H6.56734L13.8148 17.3563ZM19.6573 16L26.9961 9.2725V22.7275L19.6573 16Z" fill="#343330"/>
</svg>
