<svg width="21" height="20" viewBox="0 0 21 20" fill="none" xmlns="http://www.w3.org/2000/svg">
<path d="M18.2017 10C18.2017 10.1658 18.1358 10.3247 18.0186 10.4419C17.9014 10.5592 17.7424 10.625 17.5767 10.625H11.3267V16.875C11.3267 17.0408 11.2608 17.1997 11.1436 17.3169C11.0264 17.4342 10.8674 17.5 10.7017 17.5C10.5359 17.5 10.3769 17.4342 10.2597 17.3169C10.1425 17.1997 10.0767 17.0408 10.0767 16.875V10.625H3.82666C3.6609 10.625 3.50193 10.5592 3.38472 10.4419C3.26751 10.3247 3.20166 10.1658 3.20166 10C3.20166 9.83424 3.26751 9.67527 3.38472 9.55806C3.50193 9.44085 3.6609 9.375 3.82666 9.375H10.0767V3.125C10.0767 2.95924 10.1425 2.80027 10.2597 2.68306C10.3769 2.56585 10.5359 2.5 10.7017 2.5C10.8674 2.5 11.0264 2.56585 11.1436 2.68306C11.2608 2.80027 11.3267 2.95924 11.3267 3.125V9.375H17.5767C17.7424 9.375 17.9014 9.44085 18.0186 9.55806C18.1358 9.67527 18.2017 9.83424 18.2017 10Z" fill="#424242"/>
</svg>
