<svg width="19" height="19" viewBox="0 0 19 19" fill="none" xmlns="http://www.w3.org/2000/svg">
<path d="M5.31836 11.707C6.561 11.707 7.56836 10.6997 7.56836 9.45703C7.56836 8.21439 6.561 7.20703 5.31836 7.20703C4.07572 7.20703 3.06836 8.21439 3.06836 9.45703C3.06836 10.6997 4.07572 11.707 5.31836 11.707Z" stroke="#424242" strokeWidth="1.125" strokeLinecap="round" strokeLinejoin="round"/>
<path d="M13.1934 16.7695C14.436 16.7695 15.4434 15.7622 15.4434 14.5195C15.4434 13.2769 14.436 12.2695 13.1934 12.2695C11.9507 12.2695 10.9434 13.2769 10.9434 14.5195C10.9434 15.7622 11.9507 16.7695 13.1934 16.7695Z" stroke="#424242" strokeWidth="1.125" strokeLinecap="round" strokeLinejoin="round"/>
<path d="M13.1934 6.64453C14.436 6.64453 15.4434 5.63717 15.4434 4.39453C15.4434 3.15189 14.436 2.14453 13.1934 2.14453C11.9507 2.14453 10.9434 3.15189 10.9434 4.39453C10.9434 5.63717 11.9507 6.64453 13.1934 6.64453Z" stroke="#424242" strokeWidth="1.125" strokeLinecap="round" strokeLinejoin="round"/>
<path d="M11.3017 5.61133L7.21094 8.24102" stroke="#424242" strokeWidth="1.125" strokeLinecap="round" strokeLinejoin="round"/>
<path d="M7.21094 10.6738L11.3017 13.3035" stroke="#424242" strokeWidth="1.125" strokeLinecap="round" strokeLinejoin="round"/>
</svg>
