<svg xmlns="http://www.w3.org/2000/svg" width="15" height="18" viewBox="0 0 15 18" fill="none">
  <path d="M1.89062 6.81259C1.88958 6.07163 2.03514 5.3378 2.31892 4.65334C2.6027 3.96888 3.0191 3.34733 3.54412 2.82449C4.06914 2.30164 4.69242 1.88784 5.37805 1.60691C6.06368 1.32597 6.79812 1.18346 7.53906 1.18759C10.6328 1.21102 13.1094 3.78134 13.1094 6.8829V7.43759C13.1094 10.2345 13.6953 11.8595 14.2109 12.7501C14.2657 12.8449 14.2946 12.9525 14.2947 13.062C14.2948 13.1716 14.2661 13.2792 14.2115 13.3741C14.1569 13.4691 14.0783 13.548 13.9836 13.603C13.8889 13.658 13.7814 13.6872 13.6719 13.6876H1.32812C1.2186 13.6872 1.1111 13.658 1.01639 13.603C0.921687 13.548 0.8431 13.4691 0.788506 13.3741C0.733911 13.2792 0.705225 13.1716 0.705323 13.062C0.70542 12.9525 0.734296 12.8449 0.789058 12.7501C1.30468 11.8595 1.89062 10.2345 1.89062 7.43759V6.81259Z" stroke="black" stroke-width="1.2" stroke-linecap="round" stroke-linejoin="round"/>
  <path d="M4.99927 13.6875V14.3125C4.99927 14.9755 5.26266 15.6114 5.7315 16.0803C6.20034 16.5491 6.83623 16.8125 7.49927 16.8125C8.16231 16.8125 8.79819 16.5491 9.26703 16.0803C9.73587 15.6114 9.99927 14.9755 9.99927 14.3125V13.6875" stroke="black" stroke-width="1.2" stroke-linecap="round" stroke-linejoin="round"/>
</svg>