<svg xmlns="http://www.w3.org/2000/svg" width="18" height="18" viewBox="0 0 18 18" fill="none">
  <path d="M2.8125 2.25V10.6875C2.8125 11.1351 2.99029 11.5643 3.30676 11.8807C3.62323 12.1972 4.05245 12.375 4.5 12.375H6.1875M2.8125 2.25H1.6875M2.8125 2.25H15.1875M6.1875 12.375H11.8125M6.1875 12.375L5.4375 14.625M15.1875 2.25H16.3125M15.1875 2.25V10.6875C15.1875 11.1351 15.0097 11.5643 14.6932 11.8807C14.3768 12.1972 13.9476 12.375 13.5 12.375H11.8125M11.8125 12.375L12.5625 14.625M5.4375 14.625H12.5625M5.4375 14.625L5.0625 15.75M12.5625 14.625L12.9375 15.75M5.625 9L7.875 6.75L9.486 8.361C10.2429 7.27447 11.2291 6.36737 12.375 5.70375" stroke="#24292F" stroke-width="0.843757" stroke-linecap="round" stroke-linejoin="round"/>
</svg>