<svg xmlns="http://www.w3.org/2000/svg" width="16" height="17" viewBox="0 0 16 17" fill="none">
  <path d="M10.0204 4.92542L10.0203 4.92553L9.16359 5.78279L9.16346 5.78291L4.62677 10.3191L4.62664 10.3192C4.29959 10.6465 4.05919 11.05 3.92716 11.4934C3.92715 11.4935 3.92714 11.4935 3.92713 11.4935L3.52082 12.8572C3.46839 13.0332 3.51662 13.2237 3.64645 13.3536C3.77627 13.4834 3.96681 13.5316 4.14277 13.4792L5.50646 13.0729C5.94992 12.9408 6.35351 12.7004 6.68078 12.3734L6.68088 12.3733L12.0746 6.97956C12.347 6.70716 12.5 6.33772 12.5 5.95249C12.5 5.56727 12.347 5.19782 12.0746 4.92543C11.8022 4.65303 11.4327 4.5 11.0475 4.5C10.6623 4.5 10.2928 4.65303 10.0204 4.92542Z" stroke="#57606A" stroke-linecap="round" stroke-linejoin="round"/>
</svg>