<svg width="20" height="10" viewBox="0 0 20 10" fill="none" xmlns="http://www.w3.org/2000/svg">
<path d="M1.90709 9.19602C1.5605 9.19602 1.24231 9.1108 0.952541 8.94034C0.662768 8.76705 0.432654 8.53693 0.2622 8.25C0.0917452 7.96023 0.00651792 7.64205 0.00651792 7.29545C0.00651792 6.94602 0.0917452 6.62784 0.2622 6.34091C0.432654 6.05114 0.662768 5.8196 0.952541 5.64631C1.24231 5.47301 1.5605 5.38636 1.90709 5.38636H2.84459V3.87784H1.90709C1.5605 3.87784 1.24231 3.79261 0.952541 3.62216C0.662768 3.4517 0.432654 3.22301 0.2622 2.93608C0.0917452 2.64631 0.00651792 2.3267 0.00651792 1.97727C0.00651792 1.62784 0.0917452 1.30966 0.2622 1.02273C0.432654 0.735795 0.662768 0.507102 0.952541 0.336647C1.24231 0.163352 1.5605 0.076704 1.90709 0.076704C2.25652 0.076704 2.5747 0.163352 2.86163 0.336647C3.1514 0.507102 3.38152 0.735795 3.55197 1.02273C3.72527 1.30966 3.81192 1.62784 3.81192 1.97727V2.90625H5.3247V1.97727C5.3247 1.62784 5.40993 1.30966 5.58038 1.02273C5.75084 0.735795 5.97953 0.507102 6.26646 0.336647C6.55623 0.163352 6.87584 0.076704 7.22527 0.076704C7.5747 0.076704 7.89288 0.163352 8.17981 0.336647C8.46675 0.507102 8.69544 0.735795 8.86589 1.02273C9.03635 1.30966 9.12158 1.62784 9.12158 1.97727C9.12158 2.3267 9.03635 2.64631 8.86589 2.93608C8.69544 3.22301 8.46675 3.4517 8.17981 3.62216C7.89288 3.79261 7.5747 3.87784 7.22527 3.87784H6.29203V5.38636H7.22527C7.5747 5.38636 7.89288 5.47301 8.17981 5.64631C8.46675 5.8196 8.69544 6.05114 8.86589 6.34091C9.03635 6.62784 9.12158 6.94602 9.12158 7.29545C9.12158 7.64205 9.03635 7.96023 8.86589 8.25C8.69544 8.53693 8.46675 8.76705 8.17981 8.94034C7.89288 9.1108 7.5747 9.19602 7.22527 9.19602C6.87584 9.19602 6.55623 9.1108 6.26646 8.94034C5.97953 8.76705 5.75084 8.53693 5.58038 8.25C5.40993 7.96023 5.3247 7.64205 5.3247 7.29545V6.35795H3.81192V7.29545C3.81192 7.64205 3.72527 7.96023 3.55197 8.25C3.38152 8.53693 3.1514 8.76705 2.86163 8.94034C2.5747 9.1108 2.25652 9.19602 1.90709 9.19602ZM1.90709 8.22443C2.08038 8.22443 2.23663 8.18324 2.37584 8.10085C2.51788 8.01847 2.63152 7.90625 2.71675 7.7642C2.80197 7.62216 2.84459 7.46591 2.84459 7.29545V6.35795H1.90709C1.73663 6.35795 1.58038 6.40057 1.43834 6.4858C1.29629 6.56818 1.18265 6.6804 1.09743 6.82244C1.01504 6.96449 0.973847 7.12216 0.973847 7.29545C0.973847 7.46591 1.01504 7.62216 1.09743 7.7642C1.18265 7.90625 1.29629 8.01847 1.43834 8.10085C1.58038 8.18324 1.73663 8.22443 1.90709 8.22443ZM1.90709 2.90625H2.84459V1.97727C2.84459 1.80398 2.80197 1.64773 2.71675 1.50852C2.63152 1.36648 2.51788 1.25426 2.37584 1.17188C2.23663 1.08949 2.08038 1.0483 1.90709 1.0483C1.73663 1.0483 1.58038 1.08949 1.43834 1.17188C1.29629 1.25426 1.18265 1.36648 1.09743 1.50852C1.01504 1.64773 0.973847 1.80398 0.973847 1.97727C0.973847 2.15057 1.01504 2.30824 1.09743 2.45028C1.18265 2.58949 1.29629 2.70028 1.43834 2.78267C1.58038 2.86506 1.73663 2.90625 1.90709 2.90625ZM6.29203 2.90625H7.22527C7.39856 2.90625 7.55481 2.86506 7.69402 2.78267C7.83322 2.70028 7.94402 2.58949 8.0264 2.45028C8.11163 2.30824 8.15425 2.15057 8.15425 1.97727C8.15425 1.80398 8.11163 1.64773 8.0264 1.50852C7.94402 1.36648 7.83322 1.25426 7.69402 1.17188C7.55481 1.08949 7.39856 1.0483 7.22527 1.0483C7.05197 1.0483 6.8943 1.08949 6.75226 1.17188C6.61021 1.25426 6.498 1.36648 6.41561 1.50852C6.33322 1.64773 6.29203 1.80398 6.29203 1.97727V2.90625ZM7.22527 8.22443C7.39856 8.22443 7.55481 8.18324 7.69402 8.10085C7.83322 8.01847 7.94402 7.90625 8.0264 7.7642C8.11163 7.62216 8.15425 7.46591 8.15425 7.29545C8.15425 7.12216 8.11163 6.96449 8.0264 6.82244C7.94402 6.6804 7.83322 6.56818 7.69402 6.4858C7.55481 6.40057 7.39856 6.35795 7.22527 6.35795H6.29203V7.29545C6.29203 7.46591 6.33322 7.62216 6.41561 7.7642C6.498 7.90625 6.61021 8.01847 6.75226 8.10085C6.8943 8.18324 7.05197 8.22443 7.22527 8.22443ZM3.81192 5.38636H5.3247V3.87784H3.81192V5.38636ZM12.9 9V0.272727H14.2168V4.44034H14.3233L17.9838 0.272727H19.6415L16.1216 4.2017L19.6543 9H18.069L15.248 5.10085L14.2168 6.28551V9H12.9Z" fill="#6E7781"/>
</svg>
