<svg width="88" height="26" viewBox="0 0 88 26" fill="none" xmlns="http://www.w3.org/2000/svg">
<rect width="5.64067" height="20.9538" transform="translate(6.27588 23.4766) rotate(-180)" fill="#0379F0"/>
<rect width="5.64067" height="20.9538" transform="translate(15.6775 2.52344)" fill="#0379F0"/>
<rect width="5.71466" height="20.6825" transform="translate(0.635254 8.23828) rotate(-90)" fill="#0379F0"/>
<rect width="5.71466" height="20.6825" transform="translate(21.3181 17.7617) rotate(90)" fill="#0379F0"/>
<rect x="14.7775" y="16.8617" width="7.44067" height="7.51466" fill="#D21621"/>
<rect x="14.7775" y="16.8617" width="7.44067" height="7.51466" stroke="white" stroke-width="1.8"/>
<mask id="path-2-outside-1_906_7150" maskUnits="userSpaceOnUse" x="26.3647" y="3.8125" width="61" height="22" fill="black">
<rect fill="white" x="26.3647" y="3.8125" width="61" height="22"/>
<path d="M35.1595 20.8125C30.5737 20.8125 27.2861 17.6924 27.2861 13.0438C27.2861 8.33226 30.7831 5.14938 35.1595 5.14938C39.536 5.14938 42.9911 8.33226 42.9911 12.7925C42.9911 15.3262 41.9022 17.2736 40.3527 18.5091H42.9702V20.8125H35.1595ZM30.113 13.0438C30.113 16.1848 32.3117 18.2788 35.1595 18.2788C38.0074 18.2788 40.2061 16.2266 40.2061 13.0438C40.2061 9.86088 37.9446 7.74594 35.1595 7.74594C32.3745 7.74594 30.113 9.86088 30.113 13.0438ZM45.4378 14.2164C45.4378 11.2639 47.1549 9.48396 50.0446 9.48396C52.9134 9.48396 54.6514 11.2639 54.6514 14.2164V20.8125H52.0549V14.3002C52.0549 12.7506 51.322 11.913 50.0446 11.913C48.7463 11.913 48.0344 12.7506 48.0344 14.3002V20.8125H45.4378V14.2164ZM62.3528 21.0219C59.3374 21.0219 56.8455 18.6557 56.8455 15.2843C56.8455 11.8711 59.3374 9.52584 62.3528 9.52584C63.7976 9.52584 65.1378 10.0703 65.9335 11.0754L65.9544 9.73524H68.2578V20.8125H65.9544L65.9335 19.4723C65.1378 20.4775 63.7976 21.0219 62.3528 21.0219ZM59.4421 15.2843C59.4421 17.2736 60.8241 18.6347 62.6878 18.6347C64.4468 18.6347 65.8497 17.3993 65.8497 15.2843C65.8497 13.1485 64.4468 11.913 62.6878 11.913C60.8241 11.913 59.4421 13.2741 59.4421 15.2843ZM71.1601 20.8125V4.64682H73.7567V20.8125H71.1601ZM78.0509 24.9796L79.8727 20.3518L75.4334 9.73524H78.3231L81.2338 17.1899L83.935 9.73524H86.6572L80.7731 24.9796H78.0509Z"/>
</mask>
<path d="M35.1595 20.8125C30.5737 20.8125 27.2861 17.6924 27.2861 13.0438C27.2861 8.33226 30.7831 5.14938 35.1595 5.14938C39.536 5.14938 42.9911 8.33226 42.9911 12.7925C42.9911 15.3262 41.9022 17.2736 40.3527 18.5091H42.9702V20.8125H35.1595ZM30.113 13.0438C30.113 16.1848 32.3117 18.2788 35.1595 18.2788C38.0074 18.2788 40.2061 16.2266 40.2061 13.0438C40.2061 9.86088 37.9446 7.74594 35.1595 7.74594C32.3745 7.74594 30.113 9.86088 30.113 13.0438ZM45.4378 14.2164C45.4378 11.2639 47.1549 9.48396 50.0446 9.48396C52.9134 9.48396 54.6514 11.2639 54.6514 14.2164V20.8125H52.0549V14.3002C52.0549 12.7506 51.322 11.913 50.0446 11.913C48.7463 11.913 48.0344 12.7506 48.0344 14.3002V20.8125H45.4378V14.2164ZM62.3528 21.0219C59.3374 21.0219 56.8455 18.6557 56.8455 15.2843C56.8455 11.8711 59.3374 9.52584 62.3528 9.52584C63.7976 9.52584 65.1378 10.0703 65.9335 11.0754L65.9544 9.73524H68.2578V20.8125H65.9544L65.9335 19.4723C65.1378 20.4775 63.7976 21.0219 62.3528 21.0219ZM59.4421 15.2843C59.4421 17.2736 60.8241 18.6347 62.6878 18.6347C64.4468 18.6347 65.8497 17.3993 65.8497 15.2843C65.8497 13.1485 64.4468 11.913 62.6878 11.913C60.8241 11.913 59.4421 13.2741 59.4421 15.2843ZM71.1601 20.8125V4.64682H73.7567V20.8125H71.1601ZM78.0509 24.9796L79.8727 20.3518L75.4334 9.73524H78.3231L81.2338 17.1899L83.935 9.73524H86.6572L80.7731 24.9796H78.0509Z" fill="#1A1A1A"/>
<path d="M40.3527 18.5091L40.1968 18.3136L39.6381 18.7591H40.3527V18.5091ZM42.9702 18.5091H43.2202V18.2591H42.9702V18.5091ZM42.9702 20.8125V21.0625H43.2202V20.8125H42.9702ZM35.1595 20.5625C32.9242 20.5625 31.021 19.8029 29.6777 18.4924C28.3351 17.1826 27.5361 15.307 27.5361 13.0438H27.0361C27.0361 15.4292 27.8809 17.4379 29.3285 18.8503C30.7756 20.262 32.809 21.0625 35.1595 21.0625V20.5625ZM27.5361 13.0438C27.5361 8.47645 30.915 5.39938 35.1595 5.39938V4.89938C30.6512 4.89938 27.0361 8.18807 27.0361 13.0438H27.5361ZM35.1595 5.39938C39.4079 5.39938 42.7411 8.48005 42.7411 12.7925H43.2411C43.2411 8.18447 39.6642 4.89938 35.1595 4.89938V5.39938ZM42.7411 12.7925C42.7411 15.2487 41.688 17.1247 40.1968 18.3136L40.5085 18.7046C42.1165 17.4226 43.2411 15.4037 43.2411 12.7925H42.7411ZM40.3527 18.7591H42.9702V18.2591H40.3527V18.7591ZM42.7202 18.5091V20.8125H43.2202V18.5091H42.7202ZM42.9702 20.5625H35.1595V21.0625H42.9702V20.5625ZM29.863 13.0438C29.863 16.3201 32.1709 18.5288 35.1595 18.5288V18.0288C32.4525 18.0288 30.363 16.0494 30.363 13.0438H29.863ZM35.1595 18.5288C36.6447 18.5288 37.9719 17.9928 38.928 17.0311C39.8847 16.0689 40.4561 14.6946 40.4561 13.0438H39.9561C39.9561 14.5758 39.4281 15.819 38.5735 16.6786C37.7183 17.5387 36.5222 18.0288 35.1595 18.0288V18.5288ZM40.4561 13.0438C40.4561 9.72617 38.086 7.49594 35.1595 7.49594V7.99594C37.8032 7.99594 39.9561 9.99559 39.9561 13.0438H40.4561ZM35.1595 7.49594C32.2331 7.49594 29.863 9.72617 29.863 13.0438H30.363C30.363 9.99559 32.5159 7.99594 35.1595 7.99594V7.49594ZM54.6514 20.8125V21.0625H54.9014V20.8125H54.6514ZM52.0549 20.8125H51.8049V21.0625H52.0549V20.8125ZM48.0344 20.8125V21.0625H48.2844V20.8125H48.0344ZM45.4378 20.8125H45.1878V21.0625H45.4378V20.8125ZM45.6878 14.2164C45.6878 12.7881 46.1024 11.6736 46.8369 10.9171C47.5705 10.1617 48.6518 9.73396 50.0446 9.73396V9.23396C48.5477 9.23396 47.3256 9.69619 46.4782 10.5688C45.6318 11.4405 45.1878 12.6922 45.1878 14.2164H45.6878ZM50.0446 9.73396C51.4265 9.73396 52.5082 10.1614 53.2447 10.9174C53.9821 11.6742 54.4014 12.7889 54.4014 14.2164H54.9014C54.9014 12.6914 54.4518 11.4398 53.6029 10.5685C52.7532 9.69642 51.5315 9.23396 50.0446 9.23396V9.73396ZM54.4014 14.2164V20.8125H54.9014V14.2164H54.4014ZM54.6514 20.5625H52.0549V21.0625H54.6514V20.5625ZM52.3049 20.8125V14.3002H51.8049V20.8125H52.3049ZM52.3049 14.3002C52.3049 13.4898 52.1135 12.8271 51.7192 12.3635C51.3195 11.8937 50.741 11.663 50.0446 11.663V12.163C50.6256 12.163 51.0522 12.3511 51.3383 12.6875C51.6297 13.0301 51.8049 13.561 51.8049 14.3002H52.3049ZM50.0446 11.663C49.3388 11.663 48.7593 11.8931 48.3616 12.3642C47.9697 12.8285 47.7844 13.4914 47.7844 14.3002H48.2844C48.2844 13.5593 48.455 13.0287 48.7437 12.6868C49.0265 12.3517 49.4522 12.163 50.0446 12.163V11.663ZM47.7844 14.3002V20.8125H48.2844V14.3002H47.7844ZM48.0344 20.5625H45.4378V21.0625H48.0344V20.5625ZM45.6878 20.8125V14.2164H45.1878V20.8125H45.6878ZM65.9335 11.0754L65.7375 11.2306L66.1725 11.7801L66.1835 11.0793L65.9335 11.0754ZM65.9544 9.73524V9.48524H65.7083L65.7045 9.73133L65.9544 9.73524ZM68.2578 9.73524H68.5078V9.48524H68.2578V9.73524ZM68.2578 20.8125V21.0625H68.5078V20.8125H68.2578ZM65.9544 20.8125L65.7045 20.8164L65.7083 21.0625H65.9544V20.8125ZM65.9335 19.4723L66.1835 19.4684L66.1725 18.7677L65.7375 19.3172L65.9335 19.4723ZM62.3528 20.7719C59.4785 20.7719 57.0955 18.5207 57.0955 15.2843H56.5955C56.5955 18.7907 59.1963 21.2719 62.3528 21.2719V20.7719ZM57.0955 15.2843C57.0955 12.0061 59.4785 9.77584 62.3528 9.77584V9.27584C59.1963 9.27584 56.5955 11.7361 56.5955 15.2843H57.0955ZM62.3528 9.77584C63.74 9.77584 64.9997 10.2987 65.7375 11.2306L66.1295 10.9202C65.2758 9.8419 63.8553 9.27584 62.3528 9.27584V9.77584ZM66.1835 11.0793L66.2044 9.73914L65.7045 9.73133L65.6835 11.0715L66.1835 11.0793ZM65.9544 9.98524H68.2578V9.48524H65.9544V9.98524ZM68.0078 9.73524V20.8125H68.5078V9.73524H68.0078ZM68.2578 20.5625H65.9544V21.0625H68.2578V20.5625ZM66.2044 20.8086L66.1835 19.4684L65.6835 19.4762L65.7045 20.8164L66.2044 20.8086ZM65.7375 19.3172C64.9997 20.2491 63.74 20.7719 62.3528 20.7719V21.2719C63.8553 21.2719 65.2758 20.7058 66.1295 19.6275L65.7375 19.3172ZM59.1921 15.2843C59.1921 17.4075 60.6819 18.8847 62.6878 18.8847V18.3847C60.9664 18.3847 59.6921 17.1398 59.6921 15.2843H59.1921ZM62.6878 18.8847C63.6266 18.8847 64.4832 18.5542 65.1056 17.929C65.7288 17.3029 66.0997 16.3989 66.0997 15.2843H65.5997C65.5997 16.2847 65.2692 17.0559 64.7512 17.5763C64.2323 18.0975 63.508 18.3847 62.6878 18.3847V18.8847ZM66.0997 15.2843C66.0997 14.1599 65.7292 13.2507 65.106 12.6217C64.4835 11.9935 63.6266 11.663 62.6878 11.663V12.163C63.5079 12.163 64.2321 12.4502 64.7508 12.9737C65.2688 13.4964 65.5997 14.2728 65.5997 15.2843H66.0997ZM62.6878 11.663C61.6933 11.663 60.816 12.0272 60.1873 12.67C59.5587 13.3129 59.1921 14.2205 59.1921 15.2843H59.6921C59.6921 14.3379 60.0165 13.5599 60.5448 13.0196C61.0731 12.4794 61.8186 12.163 62.6878 12.163V11.663ZM71.1601 20.8125H70.9101V21.0625H71.1601V20.8125ZM71.1601 4.64682V4.39682H70.9101V4.64682H71.1601ZM73.7567 4.64682H74.0067V4.39682H73.7567V4.64682ZM73.7567 20.8125V21.0625H74.0067V20.8125H73.7567ZM71.4101 20.8125V4.64682H70.9101V20.8125H71.4101ZM71.1601 4.89682H73.7567V4.39682H71.1601V4.89682ZM73.5067 4.64682V20.8125H74.0067V4.64682H73.5067ZM73.7567 20.5625H71.1601V21.0625H73.7567V20.5625ZM78.0509 24.9796L77.8183 24.888L77.6838 25.2296H78.0509V24.9796ZM79.8727 20.3518L80.1053 20.4434L80.1425 20.349L80.1033 20.2554L79.8727 20.3518ZM75.4334 9.73524V9.48524H75.0579L75.2027 9.83168L75.4334 9.73524ZM78.3231 9.73524L78.556 9.64431L78.4939 9.48524H78.3231V9.73524ZM81.2338 17.1899L81.0009 17.2808L81.2425 17.8996L81.4688 17.2751L81.2338 17.1899ZM83.935 9.73524V9.48524H83.7597L83.7 9.65007L83.935 9.73524ZM86.6572 9.73524L86.8905 9.82526L87.0217 9.48524H86.6572V9.73524ZM80.7731 24.9796V25.2296H80.9446L81.0063 25.0696L80.7731 24.9796ZM78.2835 25.0711L80.1053 20.4434L79.64 20.2602L77.8183 24.888L78.2835 25.0711ZM80.1033 20.2554L75.664 9.63879L75.2027 9.83168L79.642 20.4483L80.1033 20.2554ZM75.4334 9.98524H78.3231V9.48524H75.4334V9.98524ZM78.0902 9.82617L81.0009 17.2808L81.4666 17.099L78.556 9.64431L78.0902 9.82617ZM81.4688 17.2751L84.1701 9.82041L83.7 9.65007L80.9987 17.1047L81.4688 17.2751ZM83.935 9.98524H86.6572V9.48524H83.935V9.98524ZM86.424 9.64522L80.5399 24.8895L81.0063 25.0696L86.8905 9.82526L86.424 9.64522ZM80.7731 24.7296H78.0509V25.2296H80.7731V24.7296Z" fill="#1A1A1A" mask="url(#path-2-outside-1_906_7150)"/>
</svg>
