<svg width="25" height="25" viewBox="0 0 25 25" fill="none" xmlns="http://www.w3.org/2000/svg">
<path d="M12.8184 14.207C13.6468 14.207 14.3184 13.5355 14.3184 12.707C14.3184 11.8786 13.6468 11.207 12.8184 11.207C11.9899 11.207 11.3184 11.8786 11.3184 12.707C11.3184 13.5355 11.9899 14.207 12.8184 14.207Z" fill="#424242"/>
<path d="M6.44336 14.207C7.27179 14.207 7.94336 13.5355 7.94336 12.707C7.94336 11.8786 7.27179 11.207 6.44336 11.207C5.61493 11.207 4.94336 11.8786 4.94336 12.707C4.94336 13.5355 5.61493 14.207 6.44336 14.207Z" fill="#424242"/>
<path d="M19.1934 14.207C20.0218 14.207 20.6934 13.5355 20.6934 12.707C20.6934 11.8786 20.0218 11.207 19.1934 11.207C18.3649 11.207 17.6934 11.8786 17.6934 12.707C17.6934 13.5355 18.3649 14.207 19.1934 14.207Z" fill="#424242"/>
</svg>
