<svg xmlns="http://www.w3.org/2000/svg" width="18" height="18" viewBox="0 0 18 18" fill="none">
  <path d="M7.19529 2.955C7.26279 2.5485 7.61529 2.25 8.02779 2.25H9.97254C10.385 2.25 10.7375 2.5485 10.805 2.955L10.9648 3.91575C11.012 4.19625 11.1995 4.43025 11.4485 4.56825C11.504 4.59825 11.5588 4.6305 11.6135 4.6635C11.8565 4.8105 12.1535 4.85625 12.4198 4.7565L13.3325 4.4145C13.5196 4.34416 13.7255 4.34248 13.9137 4.40978C14.1019 4.47708 14.26 4.60899 14.36 4.782L15.332 6.46725C15.4318 6.64028 15.467 6.8431 15.4313 7.03962C15.3956 7.23615 15.2913 7.41363 15.137 7.5405L14.3848 8.16075C14.165 8.34075 14.0563 8.6205 14.0615 8.90475C14.0627 8.96849 14.0627 9.03226 14.0615 9.096C14.0563 9.3795 14.165 9.6585 14.384 9.8385L15.1378 10.4595C15.4558 10.722 15.5383 11.175 15.3328 11.532L14.3593 13.2172C14.2594 13.3902 14.1014 13.5222 13.9134 13.5896C13.7254 13.657 13.5196 13.6556 13.3325 13.5855L12.4198 13.2435C12.1535 13.1438 11.8573 13.1895 11.6128 13.3365C11.5584 13.3696 11.5034 13.4016 11.4478 13.4325C11.1995 13.5697 11.012 13.8037 10.9648 14.0842L10.805 15.0443C10.7375 15.4515 10.385 15.75 9.97254 15.75H8.02704C7.61454 15.75 7.26204 15.4515 7.19454 15.045L7.03479 14.0842C6.98829 13.8037 6.80079 13.5698 6.55179 13.4318C6.49617 13.4011 6.44116 13.3693 6.38679 13.3365C6.14304 13.1895 5.84679 13.1438 5.57979 13.2435L4.66704 13.5855C4.48008 13.6556 4.27431 13.6572 4.08631 13.5899C3.89831 13.5226 3.74027 13.3908 3.64029 13.218L2.66754 11.5327C2.56775 11.3597 2.53257 11.1569 2.56828 10.9604C2.60399 10.7639 2.70826 10.5864 2.86254 10.4595L3.61554 9.83925C3.83454 9.65925 3.94329 9.3795 3.93804 9.09525C3.93687 9.03151 3.93687 8.96774 3.93804 8.904C3.94329 8.6205 3.83454 8.3415 3.61554 8.1615L2.86254 7.5405C2.70844 7.41367 2.60429 7.23633 2.56859 7.03997C2.53289 6.84361 2.56795 6.64095 2.66754 6.468L3.64029 4.78275C3.74018 4.6096 3.8983 4.47754 4.08647 4.4101C4.27465 4.34266 4.48065 4.34422 4.66779 4.4145L5.57979 4.7565C5.84679 4.85625 6.14304 4.8105 6.38679 4.6635C6.44079 4.6305 6.49629 4.59825 6.55179 4.5675C6.80079 4.43025 6.98829 4.19625 7.03479 3.91575L7.19529 2.955Z" stroke="#24292F" stroke-width="0.843757" stroke-linecap="round" stroke-linejoin="round"/>
  <path d="M11.25 9C11.25 9.59674 11.0129 10.169 10.591 10.591C10.169 11.0129 9.59674 11.25 9 11.25C8.40326 11.25 7.83097 11.0129 7.40901 10.591C6.98705 10.169 6.75 9.59674 6.75 9C6.75 8.40326 6.98705 7.83097 7.40901 7.40901C7.83097 6.98705 8.40326 6.75 9 6.75C9.59674 6.75 10.169 6.98705 10.591 7.40901C11.0129 7.83097 11.25 8.40326 11.25 9Z" stroke="#24292F" stroke-width="0.843757" stroke-linecap="round" stroke-linejoin="round"/>
</svg>