<svg xmlns="http://www.w3.org/2000/svg" width="18" height="18" viewBox="0 0 18 18" fill="none">
  <path d="M11.8125 6.75V3.9375C11.8125 3.48995 11.6347 3.06072 11.3182 2.74426C11.0018 2.42779 10.5726 2.25 10.125 2.25H5.625C5.17745 2.25 4.74823 2.42779 4.43176 2.74426C4.11529 3.06072 3.9375 3.48995 3.9375 3.9375V14.0625C3.9375 14.5101 4.11529 14.9393 4.43176 15.2557C4.74823 15.5722 5.17745 15.75 5.625 15.75H10.125C10.5726 15.75 11.0018 15.5722 11.3182 15.2557C11.6347 14.9393 11.8125 14.5101 11.8125 14.0625V11.25M9 6.75L6.75 9M6.75 9L9 11.25M6.75 9H16.3125" stroke="#24292F" stroke-width="0.843757" stroke-linecap="round" stroke-linejoin="round"/>
</svg>