<svg xmlns="http://www.w3.org/2000/svg" width="20" height="20" viewBox="0 0 20 20" fill="none">
  <path d="M12.5001 6C12.5001 6.66304 12.2367 7.29892 11.7678 7.76776C11.299 8.2366 10.6631 8.5 10.0001 8.5C9.33702 8.5 8.70114 8.2366 8.2323 7.76776C7.76346 7.29892 7.50006 6.66304 7.50006 6C7.50006 5.33696 7.76346 4.70107 8.2323 4.23223C8.70114 3.76339 9.33702 3.5 10.0001 3.5C10.6631 3.5 11.299 3.76339 11.7678 4.23223C12.2367 4.70107 12.5001 5.33696 12.5001 6ZM5.00073 15.412C5.02216 14.1002 5.55829 12.8494 6.49352 11.9294C7.42874 11.0093 8.68812 10.4936 10.0001 10.4936C11.312 10.4936 12.5714 11.0093 13.5066 11.9294C14.4418 12.8494 14.978 14.1002 14.9994 15.412C13.431 16.1312 11.7255 16.5023 10.0001 16.5C8.21606 16.5 6.52273 16.1107 5.00073 15.412Z" stroke="#24292F" stroke-width="1.25" stroke-linecap="round" stroke-linejoin="round"/>
</svg>